<svg xmlns="http://www.w3.org/2000/svg" viewBox="32 14 116 144" width="100%" height="100%">

  <!-- Pin body: full teardrop pointing down, center cx=90, cy=72, r=58 -->
  <path
    d="M 32 72
       A 58 58 0 1 1 148 72
       C 148 108, 115 130, 90 158
       C 65 130, 32 108, 32 72
       Z"
    fill="#1a1a1a"
  />

  <!-- White circle cutout -->
  <circle cx="90" cy="72" r="40" fill="white" />

  <!-- Center dot of signal icon -->
  <circle cx="90" cy="58" r="5" fill="#1a1a1a" />

  <!-- Antenna stem -->
  <rect x="88" y="58" width="4" height="26" fill="#1a1a1a" />

  <!-- Antenna base bar -->
  <rect x="83" y="84" width="14" height="6" rx="1.5" fill="#1a1a1a" />

  <!-- Left arcs -->
  <path d="M 78 46 A 14 14 0 0 0 78 70" fill="none" stroke="#1a1a1a" stroke-width="3.5" stroke-linecap="round"/>
  <path d="M 70 38 A 23 23 0 0 0 70 78" fill="none" stroke="#1a1a1a" stroke-width="3.5" stroke-linecap="round"/>

  <!-- Right arcs -->
  <path d="M 102 46 A 14 14 0 0 1 102 70" fill="none" stroke="#1a1a1a" stroke-width="3.5" stroke-linecap="round"/>
  <path d="M 110 38 A 23 23 0 0 1 110 78" fill="none" stroke="#1a1a1a" stroke-width="3.5" stroke-linecap="round"/>

</svg>
